<svg width="49" height="24" viewBox="0 0 49 24" fill="none" xmlns="http://www.w3.org/2000/svg">
<path d="M22.72 1.145L13.96 23H9.37L0.61 1.145H4.69C5.13 1.145 5.485 1.25 5.755 1.46C6.025 1.66 6.23 1.92 6.37 2.24L10.6 13.94C10.8 14.45 10.995 15.01 11.185 15.62C11.375 16.22 11.555 16.85 11.725 17.51C11.865 16.85 12.02 16.22 12.19 15.62C12.37 15.01 12.56 14.45 12.76 13.94L16.96 2.24C17.07 1.96 17.265 1.71 17.545 1.49C17.835 1.26 18.19 1.145 18.61 1.145H22.72ZM34.1521 11.675H41.9221V20.9C40.8021 21.72 39.6071 22.315 38.3371 22.685C37.0771 23.055 35.7571 23.24 34.3771 23.24C32.5771 23.24 30.9371 22.96 29.4571 22.4C27.9871 21.83 26.7271 21.05 25.6771 20.06C24.6271 19.06 23.8171 17.88 23.2471 16.52C22.6771 15.15 22.3921 13.665 22.3921 12.065C22.3921 10.435 22.6621 8.94 23.2021 7.58C23.7421 6.21 24.5121 5.03 25.5121 4.04C26.5221 3.05 27.7371 2.28 29.1571 1.73C30.5871 1.18 32.1821 0.904999 33.9421 0.904999C34.8521 0.904999 35.7071 0.979999 36.5071 1.13C37.3071 1.28 38.0421 1.485 38.7121 1.745C39.3921 2.005 40.0121 2.315 40.5721 2.675C41.1321 3.035 41.6321 3.425 42.0721 3.845L40.6021 6.08C40.3721 6.43 40.0721 6.645 39.7021 6.725C39.3421 6.805 38.9521 6.715 38.5321 6.455C38.1321 6.215 37.7521 6.01 37.3921 5.84C37.0421 5.66 36.6821 5.515 36.3121 5.405C35.9421 5.295 35.5521 5.215 35.1421 5.165C34.7321 5.115 34.2721 5.09 33.7621 5.09C32.8121 5.09 31.9571 5.26 31.1971 5.6C30.4371 5.93 29.7871 6.4 29.2471 7.01C28.7171 7.62 28.3071 8.355 28.0171 9.215C27.7271 10.065 27.5821 11.015 27.5821 12.065C27.5821 13.225 27.7421 14.255 28.0621 15.155C28.3821 16.055 28.8321 16.815 29.4121 17.435C30.0021 18.055 30.7021 18.53 31.5121 18.86C32.3321 19.18 33.2371 19.34 34.2271 19.34C34.8371 19.34 35.3871 19.28 35.8771 19.16C36.3771 19.04 36.8621 18.88 37.3321 18.68V15.365H35.1721C34.8521 15.365 34.6021 15.28 34.4221 15.11C34.2421 14.94 34.1521 14.725 34.1521 14.465V11.675ZM44.1618 20.645C44.1618 20.285 44.2268 19.95 44.3568 19.64C44.4968 19.33 44.6818 19.06 44.9118 18.83C45.1518 18.6 45.4318 18.42 45.7518 18.29C46.0718 18.15 46.4218 18.08 46.8018 18.08C47.1718 18.08 47.5168 18.15 47.8368 18.29C48.1568 18.42 48.4368 18.6 48.6768 18.83C48.9168 19.06 49.1018 19.33 49.2318 19.64C49.3718 19.95 49.4418 20.285 49.4418 20.645C49.4418 21.005 49.3718 21.345 49.2318 21.665C49.1018 21.975 48.9168 22.245 48.6768 22.475C48.4368 22.705 48.1568 22.885 47.8368 23.015C47.5168 23.145 47.1718 23.21 46.8018 23.21C46.4218 23.21 46.0718 23.145 45.7518 23.015C45.4318 22.885 45.1518 22.705 44.9118 22.475C44.6818 22.245 44.4968 21.975 44.3568 21.665C44.2268 21.345 44.1618 21.005 44.1618 20.645Z" fill="#DF23F4"/>
</svg>
